<?xml version="1.0" encoding="utf-8"?>
<!-- Generator: Adobe Illustrator 25.1.0, SVG Export Plug-In . SVG Version: 6.00 Build 0)  -->
<svg version="1.1" id="Layer_1" xmlns="http://www.w3.org/2000/svg" xmlns:xlink="http://www.w3.org/1999/xlink" x="0px" y="0px"
	 viewBox="0 0 208.2 36.2" style="enable-background:new 0 0 208.2 36.2;" xml:space="preserve">
<style type="text/css">
	.st0{fill:#5C0F8B;}
	.st1{fill:#FFFFFF;}
	.st2{fill:#E6540F;}
</style>
<g transform="translate(-570 -20)">
	<path class="st0" d="M682.3,52.7h-7.4V23.5h7.4V52.7z M637.7,34.7v11h-11c-2.6,0.1-4.9-1.9-5-4.5V23.5h-7.4v17.3
		c0.2,6.7,5.7,12,12.4,11.9h18.3v-18H637.7z M656.1,23.5h-18.3v7h18.3c2.6-0.1,4.9,1.9,5,4.5v17.7h7.4V35.4
		C668.3,28.7,662.8,23.4,656.1,23.5 M719.5,23.5h-30.9v7h11.8v22.2h7.4V30.5h11.8L719.5,23.5z M737.7,34.6c-1.9-0.2-3.6,1.3-3.8,3.2
		c-0.2,1.9,1.3,3.6,3.2,3.8c0.2,0,0.4,0,0.6,0h15.5v-7L737.7,34.6z M738.1,30.5h15.1v-7h-15.5c-8.5,0-15.3,6.6-15.3,14.6
		s6.8,14.6,15.3,14.6h15.5v-7h-15.1c-4.6,0-8.3-3.4-8.3-7.6S733.5,30.5,738.1,30.5 M771.3,45.7c-2,0.1-3.7-1.4-3.9-3.4V23.5h-7.4V42
		c0.1,6.1,5.2,10.9,11.2,10.8c0,0,0,0,0,0h6.9v-7H771.3z"/>
	<path class="st1" d="M606.2,38.1c0,10-8.1,18.1-18.1,18.1S570,48.1,570,38.1c0-10,8.1-18.1,18.1-18.1
		C598.1,20,606.2,28.1,606.2,38.1"/>
	<path class="st2" d="M601.9,33.9h-9.8v-4.2h12.1c-4.6-8.9-15.6-12.3-24.5-7.7s-12.3,15.6-7.7,24.5c4.6,8.9,15.6,12.3,24.5,7.7
		c6-3.1,9.7-9.3,9.7-16.1l0,0C606.2,35.8,604.3,33.9,601.9,33.9C601.9,34,601.9,34,601.9,33.9 M596.6,47.4h-11.1
		c-4.1,0.1-7.4-3.1-7.5-7.2V29.7h4.5v10.7c0.1,1.6,1.5,2.8,3.1,2.7h6.6v-6.7h4.5V47.4z"/>
</g>
</svg>
