<svg xmlns="http://www.w3.org/2000/svg" width="197.306" height="34.337" viewBox="0 0 197.306 34.337"><defs><style>.a{fill:#fff;}.b{fill:#ed6124;}</style></defs><g transform="translate(-570 -20)"><path class="a" d="M671.065,50.565H664.1V22.934h6.968Zm-42.19-17.031V43.942H618.483a4.55,4.55,0,0,1-4.781-4.264V22.934h-6.967v16.4a11.5,11.5,0,0,0,11.748,11.232h17.36V33.534Zm17.36-10.6h-17.36v6.624h17.36a4.551,4.551,0,0,1,4.782,4.264V50.565h6.968v-16.4a11.5,11.5,0,0,0-11.75-11.232m60.085,0H677.03v6.624h11.161V50.565h6.967V29.558h11.161Zm17.274,10.5a3.323,3.323,0,1,0,0,6.619h14.646v-6.62Zm.363-3.886h14.283v-6.62H723.576c-8.057,0-14.454,6.254-14.454,13.816s6.4,13.815,14.454,13.815h14.663V43.938H723.956c-4.337,0-7.865-3.229-7.865-7.2s3.529-7.2,7.865-7.2m31.491,14.392a3.482,3.482,0,0,1-3.688-3.219V22.934h-6.968V40.379a10.428,10.428,0,0,0,10.656,10.187h6.548V43.938Z" transform="translate(5.311 0.423)"/><path class="a" d="M604.337,37.169A17.169,17.169,0,1,1,587.168,20a17.169,17.169,0,0,1,17.17,17.169"/><path class="b" d="M600.224,33.216h-9.3v-4h11.465a17.175,17.175,0,1,0,1.948,7.955h0a4.035,4.035,0,0,0-4.114-3.956m-4.984,12.72H584.723a6.966,6.966,0,0,1-7.119-6.8V29.2h4.222V39.341a2.756,2.756,0,0,0,2.9,2.582h6.3V35.617h4.222Z"/></g></svg>